<svg width="34" height="34" viewBox="0 0 34 34" fill="none" xmlns="http://www.w3.org/2000/svg">
<path fill-rule="evenodd" clip-rule="evenodd" d="M10.6065 23.3638C10.3136 23.0709 10.3136 22.5961 10.6065 22.3032L22.2738 10.6359C22.5667 10.343 23.0415 10.343 23.3344 10.6359C23.6273 10.9288 23.6273 11.4037 23.3344 11.6966L11.6672 23.3638C11.3743 23.6567 10.8994 23.6567 10.6065 23.3638Z" fill="white"/>
<path fill-rule="evenodd" clip-rule="evenodd" d="M12.5084 11.1665C12.5084 10.7523 12.8442 10.4165 13.2584 10.4165L22.8044 10.4165C23.2186 10.4165 23.5544 10.7523 23.5544 11.1665L23.5544 20.7124C23.5544 21.1267 23.2186 21.4624 22.8044 21.4624C22.3901 21.4624 22.0544 21.1267 22.0544 20.7124L22.0544 11.9165L13.2584 11.9165C12.8442 11.9165 12.5084 11.5807 12.5084 11.1665Z" fill="white"/>
</svg>
