<svg width="25" height="24" viewBox="0 0 25 24" fill="none" xmlns="http://www.w3.org/2000/svg">
<path fill-rule="evenodd" clip-rule="evenodd" d="M11.2272 3.73158C10.9391 3.65452 10.6322 3.69498 10.3739 3.84409C10.1157 3.99319 9.92721 4.23873 9.8499 4.52674C9.77262 4.81467 9.81279 5.12151 9.96158 5.37984C9.96162 5.37991 9.96154 5.37977 9.96158 5.37984L12.3989 9.60138C12.606 9.9601 12.4831 10.4188 12.1244 10.6259C11.7656 10.833 11.307 10.7101 11.0998 10.3514L8.66235 6.12951C8.31495 5.52663 8.22081 4.80993 8.40118 4.13791C8.58155 3.46588 9.02136 2.89296 9.62395 2.54505C10.2265 2.19714 10.9426 2.10272 11.6148 2.28253C12.287 2.46234 12.8603 2.90166 13.2087 3.50397L16.959 9.9997C17.1661 10.3584 17.0432 10.8171 16.6845 11.0242C16.3257 11.2313 15.867 11.1084 15.6599 10.7497L11.9103 4.25505C11.9102 4.25498 11.9103 4.25513 11.9103 4.25505C11.7609 3.99704 11.5152 3.80862 11.2272 3.73158Z" fill="white"/>
<path fill-rule="evenodd" clip-rule="evenodd" d="M7.22913 4.30555C7.08636 4.26723 6.93745 4.25742 6.79089 4.27668C6.64434 4.29595 6.50301 4.3439 6.375 4.41781C6.24699 4.49172 6.13479 4.59013 6.04483 4.70742C5.95487 4.82471 5.88891 4.95858 5.85071 5.10137C5.81251 5.24417 5.80283 5.39309 5.82222 5.53963C5.8416 5.68617 5.88968 5.82745 5.96369 5.9554L9.52651 12.1264C9.73361 12.4851 9.61071 12.9438 9.25199 13.1509C8.89327 13.358 8.43458 13.2351 8.22747 12.8764L4.66528 6.70649C4.66523 6.7064 4.66533 6.70658 4.66528 6.70649C4.49267 6.40801 4.38039 6.07818 4.33517 5.73635C4.28994 5.39443 4.31253 5.04694 4.40166 4.71375C4.49079 4.38056 4.64471 4.0682 4.85461 3.79453C5.06452 3.52085 5.3263 3.29123 5.625 3.11877C5.9237 2.94632 6.25345 2.83442 6.59541 2.78948C6.93738 2.74453 7.28484 2.76741 7.61796 2.85682C7.95107 2.94623 8.2633 3.1004 8.5368 3.31054C8.81014 3.52055 9.03943 3.78233 9.2116 4.08095L12.3991 9.60186C12.6062 9.96058 12.4833 10.4193 12.1246 10.6264C11.7659 10.8335 11.3072 10.7106 11.1001 10.3519L7.91256 4.83095C7.83876 4.70287 7.74013 4.59006 7.62292 4.5C7.5057 4.40994 7.37189 4.34386 7.22913 4.30555Z" fill="white"/>
<path fill-rule="evenodd" clip-rule="evenodd" d="M17.2867 6.72596C17.1439 6.68764 16.995 6.67783 16.8484 6.69709C16.7019 6.71636 16.5606 6.76431 16.4326 6.83822C16.3045 6.91213 16.1923 7.01054 16.1024 7.12783C16.0124 7.24512 15.9465 7.37899 15.9083 7.52178C15.8701 7.66458 15.8604 7.8135 15.8798 7.96004C15.8992 8.10658 15.9472 8.24786 16.0212 8.37581L16.9591 10.0002C17.1662 10.3589 17.0433 10.8176 16.6845 11.0247C15.9955 11.4225 15.4927 12.0778 15.2868 12.8463C15.0808 13.6148 15.1886 14.4337 15.5865 15.1227C15.7936 15.4815 15.6707 15.9402 15.3119 16.1473C14.9532 16.3544 14.4945 16.2315 14.2874 15.8727C13.6907 14.8392 13.529 13.6109 13.8379 12.4581C14.0813 11.5496 14.6012 10.7467 15.3165 10.1551L14.7228 9.1269C14.5501 8.82835 14.438 8.49869 14.3927 8.15676C14.3475 7.81484 14.3701 7.46735 14.4592 7.13416C14.5483 6.80097 14.7023 6.48861 14.9122 6.21494C15.1221 5.94126 15.3839 5.71164 15.6826 5.53918C15.9812 5.36673 16.311 5.25483 16.653 5.20989C16.9949 5.16494 17.3424 5.18782 17.6755 5.27723C18.0086 5.36664 18.3209 5.52081 18.5944 5.73095C18.8677 5.94096 19.097 6.20274 19.2692 6.50136L21.1441 9.74881C21.1441 9.74886 21.144 9.74876 21.1441 9.74881C21.686 10.687 22.0379 11.723 22.1795 12.7972C22.3211 13.8715 22.2497 14.9631 21.9694 16.0098C21.6891 17.0564 21.2053 18.0376 20.5457 18.8973C19.8861 19.757 19.0637 20.4783 18.1253 21.0201C17.1869 21.5619 16.151 21.9135 15.0767 22.0549C14.0024 22.1963 12.9107 22.1246 11.8641 21.8441C10.8175 21.5635 9.83644 21.0795 8.9769 20.4197C8.11736 19.76 7.39622 18.9373 6.85465 17.9988L2.91723 11.179C2.56983 10.5761 2.47569 9.85943 2.65606 9.1874C2.83643 8.51537 3.27624 7.94245 3.87883 7.59454C4.48142 7.24664 5.19749 7.15221 5.86967 7.33202C6.54185 7.51183 7.11514 7.95116 7.46355 8.55346L9.52636 12.1264C9.73347 12.4851 9.61056 12.9438 9.25184 13.1509C8.89313 13.358 8.43443 13.2351 8.22733 12.8764L6.16514 9.30455C6.16509 9.30445 6.16519 9.30464 6.16514 9.30455C6.01581 9.04656 5.77002 8.85811 5.48205 8.78107C5.19397 8.70401 4.88709 8.74448 4.62883 8.89358C4.37058 9.04269 4.18209 9.28822 4.10479 9.57623C4.02751 9.86417 4.06767 10.171 4.21646 10.4293C4.2165 10.4294 4.21642 10.4293 4.21646 10.4293L8.15377 17.249C8.59687 18.0168 9.18698 18.69 9.89024 19.2298C10.5935 19.7697 11.3962 20.1657 12.2525 20.3952C13.1088 20.6248 14.002 20.6834 14.881 20.5677C15.7599 20.452 16.6075 20.1643 17.3753 19.7211C18.1431 19.2778 18.816 18.6876 19.3556 17.9842C19.8953 17.2809 20.2911 16.4781 20.5205 15.6217C20.7498 14.7653 20.8082 13.8722 20.6924 12.9932C20.5765 12.1143 20.2886 11.2668 19.8452 10.4991L17.9701 7.25136C17.8963 7.12328 17.7977 7.01047 17.6805 6.92041C17.5633 6.83035 17.4294 6.76427 17.2867 6.72596Z" fill="white"/>
<path fill-rule="evenodd" clip-rule="evenodd" d="M4.62605 18.4741C4.98506 18.2675 5.44358 18.3911 5.65018 18.7501C6.36654 19.9949 7.35021 21.0653 8.53025 21.8841C8.87057 22.1202 8.95503 22.5875 8.71891 22.9278C8.48278 23.2681 8.01548 23.3526 7.67516 23.1165C6.31279 22.1712 5.17713 20.9354 4.35008 19.4982C4.14348 19.1392 4.26704 18.6807 4.62605 18.4741Z" fill="white"/>
<path fill-rule="evenodd" clip-rule="evenodd" d="M19.0623 4.20882C18.4353 3.84674 17.7241 3.65615 17.0001 3.65625C16.5859 3.65631 16.2501 3.32056 16.25 2.90635C16.2499 2.49214 16.5857 2.15631 16.9999 2.15625C17.9873 2.15612 18.9574 2.41605 19.8125 2.90989C20.6676 3.40374 21.3775 4.11407 21.8708 4.96943C22.0778 5.32824 21.9547 5.78688 21.5959 5.99383C21.2371 6.20079 20.7784 6.07769 20.5715 5.71888C20.2098 5.09173 19.6892 4.57091 19.0623 4.20882Z" fill="white"/>
</svg>
