<svg width="25" height="24" viewBox="0 0 25 24" fill="none" xmlns="http://www.w3.org/2000/svg">
<path fill-rule="evenodd" clip-rule="evenodd" d="M13.3207 8.3461C13.8805 8.02287 14.5458 7.93528 15.1703 8.10259C15.7947 8.26991 16.3271 8.67843 16.6503 9.23829L18.2441 11.9987C19.2387 13.7214 19.5082 15.7685 18.9933 17.6899C18.4785 19.6112 17.2215 21.2494 15.4989 22.2439C13.7763 23.2385 11.7291 23.508 9.80776 22.9932C7.88642 22.4784 6.24828 21.2214 5.25372 19.4987L1.78514 13.491C1.78508 13.4909 1.7852 13.4911 1.78514 13.491C1.62501 13.2139 1.52086 12.9076 1.47897 12.5903C1.43707 12.2728 1.45812 11.9502 1.54092 11.6409C1.62372 11.3316 1.76664 11.0417 1.96154 10.7876C2.15643 10.5336 2.39946 10.3204 2.67676 10.1603C2.95405 10.0002 3.26018 9.89633 3.57763 9.85458C3.89509 9.81282 4.21767 9.83402 4.52693 9.91696C4.83619 9.99991 5.12608 10.143 5.38004 10.338C5.634 10.533 5.84705 10.7761 6.00701 11.0535C6.21395 11.4123 6.09083 11.8709 5.73202 12.0779C5.3732 12.2848 4.91457 12.1617 4.70763 11.8029C4.6461 11.6962 4.56416 11.6027 4.46648 11.5277C4.36881 11.4527 4.25731 11.3977 4.13836 11.3658C4.01942 11.3339 3.89535 11.3257 3.77325 11.3418C3.65115 11.3578 3.53341 11.3978 3.42676 11.4594C3.32011 11.5209 3.22663 11.6029 3.15167 11.7006C3.07671 11.7983 3.02174 11.9099 2.9899 12.0288C2.95805 12.1478 2.94995 12.2719 2.96607 12.394C2.98219 12.516 3.0222 12.6338 3.08383 12.7404L6.55275 18.7487C7.3484 20.1269 8.65891 21.1324 10.196 21.5443C11.7331 21.9562 13.3708 21.7405 14.7489 20.9449C16.127 20.1492 17.1326 18.8387 17.5445 17.3017C17.9563 15.7646 17.7407 14.1268 16.9451 12.7487L15.3513 9.98829C15.227 9.77296 15.0222 9.61583 14.7821 9.55148C14.5419 9.48713 14.286 9.52082 14.0707 9.64514C13.8553 9.76946 13.6982 9.97423 13.6339 10.2144C13.5695 10.4546 13.6032 10.7105 13.7275 10.9258C13.9346 11.2845 13.8117 11.7432 13.453 11.9503C13.0943 12.1574 12.6356 12.0345 12.4285 11.6758C12.1052 11.1159 12.0176 10.4506 12.185 9.82617C12.3523 9.20173 12.7608 8.66933 13.3207 8.3461Z" fill="#151517"/>
<path fill-rule="evenodd" clip-rule="evenodd" d="M4.28712 6.2001C4.84697 5.87687 5.5123 5.78928 6.13674 5.9566C6.76117 6.12391 7.29357 6.53244 7.6168 7.09229L11.1793 13.2627C11.3864 13.6214 11.2635 14.0801 10.9048 14.2872C10.5461 14.4943 10.0874 14.3714 9.88027 14.0127L6.31776 7.84229C6.19344 7.62696 5.98868 7.46984 5.74851 7.40549C5.50834 7.34113 5.25244 7.37482 5.03712 7.49914C4.82179 7.62346 4.66466 7.82823 4.60031 8.0684C4.53596 8.30857 4.56965 8.56446 4.69397 8.77979L8.25647 14.9502C8.46357 15.3089 8.34067 15.7676 7.98195 15.9747C7.62323 16.1818 7.16454 16.0589 6.95743 15.7002L3.39493 9.52979C3.0717 8.96994 2.9841 8.30461 3.15142 7.68017C3.31874 7.05573 3.72726 6.52334 4.28712 6.2001Z" fill="#151517"/>
<path fill-rule="evenodd" clip-rule="evenodd" d="M7.96094 5.81241C8.52063 5.48928 9.18573 5.40163 9.81002 5.56875C10.4343 5.73588 10.9667 6.14408 11.2901 6.70361L15.2277 13.5239C15.4348 13.8826 15.3119 14.3413 14.9532 14.5484C14.5945 14.7555 14.1358 14.6326 13.9287 14.2739L9.99137 7.45422C9.86699 7.23901 9.66224 7.08201 9.42213 7.01773C9.18202 6.95346 8.92621 6.98716 8.71094 7.11145C8.49568 7.23573 8.33858 7.44041 8.27419 7.68049C8.20981 7.92057 8.24339 8.17639 8.36758 8.39172C8.57452 8.75053 8.4514 9.20917 8.09258 9.41611C7.73376 9.62305 7.27513 9.49993 7.06819 9.14111C6.74532 8.58127 6.65798 7.91613 6.8254 7.29192C6.99281 6.66772 7.40126 6.13554 7.96094 5.81241Z" fill="#151517"/>
<path fill-rule="evenodd" clip-rule="evenodd" d="M7.03613 3.09503C7.35359 3.05328 7.67616 3.07448 7.98543 3.15742C8.29469 3.24037 8.58458 3.38343 8.83854 3.57844C9.0924 3.77338 9.30539 4.01641 9.46533 4.29365L10.435 5.97323C10.6421 6.33195 10.5192 6.79064 10.1605 6.99775C9.8018 7.20486 9.34311 7.08195 9.136 6.72323L8.1663 5.04365C8.10477 4.93697 8.02265 4.84315 7.92498 4.76815C7.8273 4.69315 7.71581 4.63812 7.59686 4.60622C7.47791 4.57432 7.35384 4.56616 7.23174 4.58222C7.10964 4.59829 6.99191 4.63824 6.88525 4.69982C6.7786 4.7614 6.68513 4.84338 6.61017 4.94109C6.53521 5.0388 6.48024 5.15032 6.44839 5.26929C6.41655 5.38825 6.40845 5.51232 6.42457 5.63441C6.44068 5.7565 6.4807 5.87422 6.54232 5.98085L6.76216 6.36162C6.96927 6.72033 6.84637 7.17903 6.48765 7.38614C6.12893 7.59325 5.67024 7.47034 5.46313 7.11162L5.24364 6.73145C5.24358 6.73136 5.24369 6.73155 5.24364 6.73145C5.08351 6.45431 4.97936 6.14805 4.93747 5.83072C4.89556 5.51328 4.91661 5.1907 4.99941 4.8814C5.08221 4.5721 5.22514 4.28214 5.42003 4.02809C5.61492 3.77404 5.85796 3.56088 6.13525 3.40078C6.41255 3.24069 6.71867 3.13679 7.03613 3.09503Z" fill="#151517"/>
<path fill-rule="evenodd" clip-rule="evenodd" d="M16.0688 5.24054C16.3863 5.19879 16.7089 5.21999 17.0181 5.30293C17.3274 5.38587 17.6173 5.52894 17.8713 5.72395C18.1251 5.91889 18.3381 6.16191 18.4981 6.43916C18.4981 6.43926 18.498 6.43906 18.4981 6.43916L20.0918 9.19961C20.9491 10.6847 21.2717 12.4187 21.0061 14.1128C20.7404 15.8068 19.9024 17.3587 18.6317 18.5101C18.3247 18.7882 17.8504 18.7648 17.5723 18.4579C17.2942 18.1509 17.3176 17.6766 17.6245 17.3985C18.6412 16.4774 19.3116 15.2357 19.5242 13.8804C19.7367 12.525 19.4786 11.1378 18.7928 9.94961C18.7928 9.9496 18.7928 9.94963 18.7928 9.94961L17.199 7.18916C17.1375 7.08248 17.0554 6.98866 16.9577 6.91366C16.86 6.83865 16.7485 6.78363 16.6296 6.75173C16.5106 6.71983 16.3866 6.71167 16.2645 6.72773C16.1424 6.74379 16.0246 6.78375 15.918 6.84533C15.8113 6.9069 15.7178 6.98889 15.6429 7.0866C15.5679 7.18431 15.513 7.29583 15.4811 7.4148C15.4493 7.53376 15.4412 7.65783 15.4573 7.77992C15.4734 7.90201 15.5134 8.01973 15.575 8.12636C15.7823 8.48498 15.6596 8.94373 15.301 9.151C14.9424 9.35828 14.4836 9.23559 14.2764 8.87696C14.1161 8.59974 14.0121 8.29367 13.9702 7.97623C13.9283 7.65879 13.9493 7.33621 14.0321 7.02691C14.1149 6.7176 14.2579 6.42765 14.4527 6.1736C14.6476 5.91955 14.8907 5.70639 15.168 5.54629C15.4453 5.38619 15.7514 5.2823 16.0688 5.24054Z" fill="#151517"/>
<path fill-rule="evenodd" clip-rule="evenodd" d="M9.80811 3.0126C10.368 2.68937 11.0333 2.60178 11.6577 2.7691C11.9669 2.85194 12.2568 2.99488 12.5107 3.18974C12.7647 3.38461 12.9778 3.62758 13.1378 3.90479L15.795 8.50727C16.0021 8.86599 15.8792 9.32468 15.5205 9.53179C15.1618 9.7389 14.7031 9.61599 14.496 9.25727L11.8388 4.65479C11.7772 4.54817 11.6952 4.45472 11.5976 4.37977C11.4999 4.30483 11.3884 4.24985 11.2695 4.21799C11.0293 4.15363 10.7734 4.18732 10.5581 4.31164C10.3428 4.43596 10.1857 4.64073 10.1213 4.8809C10.057 5.12107 10.0906 5.37696 10.215 5.59229C10.4221 5.95101 10.2992 6.4097 9.94044 6.61681C9.58172 6.82392 9.12303 6.70101 8.91592 6.34229C8.59269 5.78244 8.5051 5.11711 8.67242 4.49267C8.83974 3.86823 9.24826 3.33584 9.80811 3.0126Z" fill="#151517"/>
<path fill-rule="evenodd" clip-rule="evenodd" d="M17.2734 0.331894C17.6735 0.439101 17.911 0.850354 17.8038 1.25045L17.4155 2.69934C17.3083 3.09944 16.8971 3.33688 16.497 3.22967C16.0969 3.12246 15.8595 2.71121 15.9667 2.31111L16.3549 0.862224C16.4621 0.462124 16.8733 0.224688 17.2734 0.331894Z" fill="#151517"/>
<path fill-rule="evenodd" clip-rule="evenodd" d="M20.3424 1.76363C20.6817 2.00121 20.7641 2.46887 20.5266 2.80818L19.6662 4.03691C19.4286 4.37621 18.9609 4.45867 18.6216 4.22109C18.2823 3.9835 18.1999 3.51584 18.4375 3.17654L19.2978 1.94781C19.5354 1.60851 20.0031 1.52605 20.3424 1.76363Z" fill="#151517"/>
<path fill-rule="evenodd" clip-rule="evenodd" d="M22.7367 4.15777C22.9743 4.49708 22.8918 4.96474 22.5525 5.20232L21.3238 6.06268C20.9845 6.30027 20.5168 6.21781 20.2793 5.8785C20.0417 5.5392 20.1241 5.07154 20.4634 4.83396L21.6922 3.97359C22.0315 3.73601 22.4991 3.81847 22.7367 4.15777Z" fill="#151517"/>
</svg>
