<svg width="24" height="24" viewBox="0 0 16 16" fill="none" xmlns="http://www.w3.org/2000/svg">
<path fill-rule="evenodd" clip-rule="evenodd" d="M13.481 1.9268C13.6292 1.86858 13.7905 1.8519 13.9475 1.87857C14.1044 1.90524 14.2512 1.97424 14.3718 2.07814C14.4925 2.18204 14.5825 2.3169 14.6322 2.46819C14.6819 2.61947 14.6894 2.78145 14.6538 2.93666L14.2883 2.8529L14.6538 2.93666L12.3029 13.1949C12.2691 13.3427 12.1974 13.4791 12.095 13.5908C11.9926 13.7026 11.8629 13.7857 11.7186 13.8323C11.5743 13.8788 11.4205 13.887 11.2721 13.8562C11.1237 13.8254 10.9858 13.7565 10.872 13.6564L5.32771 8.77739L2.09451 8.13075C1.90917 8.09368 1.74081 7.99759 1.61463 7.85686C1.48845 7.71613 1.41124 7.53832 1.39454 7.35005C1.37784 7.16177 1.42255 6.97315 1.52199 6.81241C1.62143 6.65167 1.77024 6.52745 1.94617 6.45833L2.08329 6.80736L1.94617 6.45833L13.481 1.9268ZM13.8218 2.61798C13.7994 2.61417 13.7764 2.61655 13.7552 2.62487L2.22041 7.1564C2.19528 7.16627 2.17402 7.18401 2.15981 7.20698C2.14561 7.22994 2.13922 7.25689 2.1416 7.28378C2.14399 7.31068 2.15502 7.33608 2.17305 7.35618C2.19107 7.37629 2.21512 7.39002 2.2416 7.39531L5.57346 8.06168C5.63809 8.07461 5.69817 8.10434 5.74765 8.14788L11.3675 13.0933C11.3837 13.1076 11.4034 13.1175 11.4246 13.1219C11.4458 13.1263 11.4678 13.1251 11.4884 13.1185C11.509 13.1118 11.5276 13.0999 11.5422 13.084C11.5568 13.068 11.5671 13.0485 11.5719 13.0274L13.9228 2.76913C13.9278 2.74696 13.9268 2.72382 13.9197 2.70221C13.9126 2.6806 13.8997 2.66133 13.8825 2.64649C13.8652 2.63164 13.8443 2.62179 13.8218 2.61798Z" fill="white"/>
<path fill-rule="evenodd" clip-rule="evenodd" d="M14.311 2.06611C14.4323 2.23401 14.3945 2.46842 14.2266 2.58968L5.71959 8.73363C5.55169 8.85489 5.31728 8.81708 5.19602 8.64919C5.07476 8.48129 5.11257 8.24688 5.28047 8.12562L13.7875 1.98167C13.9554 1.86041 14.1898 1.89822 14.311 2.06611Z" fill="white"/>
<path fill-rule="evenodd" clip-rule="evenodd" d="M5.5 8.05469C5.70711 8.05469 5.875 8.22258 5.875 8.42969V12.4992C5.875 12.5239 5.88233 12.5481 5.89607 12.5686C5.9098 12.5892 5.92932 12.6052 5.95216 12.6146C5.97501 12.6241 6.00014 12.6266 6.02439 12.6218C6.04863 12.6169 6.07091 12.605 6.08839 12.5875L8.04153 10.6344C8.18797 10.488 8.42541 10.488 8.57186 10.6344C8.7183 10.7809 8.7183 11.0183 8.57186 11.1647L6.61872 13.1179L6.35355 12.8527L6.61872 13.1179C6.49635 13.2402 6.34044 13.3236 6.1707 13.3573C6.00097 13.3911 5.82504 13.3738 5.66515 13.3076C5.50527 13.2413 5.36861 13.1292 5.27247 12.9853C5.17632 12.8414 5.125 12.6722 5.125 12.4992V8.42969C5.125 8.22258 5.29289 8.05469 5.5 8.05469Z" fill="white"/>
</svg>
